<svg width="80" height="79" viewBox="0 0 80 79" fill="none" xmlns="http://www.w3.org/2000/svg">
<path d="M4.48 73.2C3.74667 73.2 3.08 73.02 2.48 72.66C1.89333 72.2867 1.42667 71.7933 1.08 71.18C0.733333 70.5667 0.56 69.88 0.56 69.12L0.58 62.88C0.58 62.1467 0.746667 61.48 1.08 60.88C1.42667 60.2667 1.89333 59.78 2.48 59.42C3.08 59.0467 3.74667 58.86 4.48 58.86C5.21333 58.86 5.87333 59.04 6.46 59.4C7.04667 59.76 7.51333 60.2467 7.86 60.86C8.20667 61.46 8.38 62.1333 8.38 62.88V63.8C8.38 63.8533 8.35333 63.88 8.3 63.88H6.06C6.00667 63.88 5.98 63.8533 5.98 63.8V62.88C5.98 62.44 5.83333 62.06 5.54 61.74C5.26 61.42 4.90667 61.26 4.48 61.26C4 61.26 3.63333 61.4267 3.38 61.76C3.12667 62.08 3 62.4533 3 62.88V69.12C3 69.6133 3.14 70.0133 3.42 70.32C3.71333 70.6267 4.06667 70.78 4.48 70.78C4.90667 70.78 5.26 70.6133 5.54 70.28C5.83333 69.9333 5.98 69.5467 5.98 69.12V68.2C5.98 68.1467 6.00667 68.12 6.06 68.12H8.32C8.37333 68.12 8.4 68.1467 8.4 68.2V69.12C8.4 69.88 8.22 70.5667 7.86 71.18C7.51333 71.7933 7.04667 72.2867 6.46 72.66C5.87333 73.02 5.21333 73.2 4.48 73.2ZM8.83094 72.9L11.3109 59.16C11.3243 59.1067 11.3576 59.08 11.4109 59.08H14.3109C14.3643 59.08 14.3976 59.1067 14.4109 59.16L16.7909 72.9C16.8043 72.9667 16.7776 73 16.7109 73H14.4909C14.4376 73 14.4043 72.9667 14.3909 72.9L14.1709 71.44H11.4509L11.2309 72.9C11.2176 72.9667 11.1843 73 11.1309 73H8.91094C8.8576 73 8.83094 72.9667 8.83094 72.9ZM11.8509 69.3H13.7709L12.9509 63.68L12.8309 62.94L12.7509 63.68L11.8509 69.3ZM18.1261 73C18.0728 73 18.0461 72.9667 18.0461 72.9L18.0861 59.18C18.0861 59.1133 18.1128 59.08 18.1661 59.08H20.4061C20.4594 59.08 20.4861 59.1133 20.4861 59.18V63.92L23.6261 59.16C23.6661 59.1067 23.7128 59.08 23.7661 59.08H26.0661C26.1194 59.08 26.1328 59.1067 26.1061 59.16L22.6461 64.68L26.5261 72.92C26.5528 72.9733 26.5194 73 26.4261 73H23.9861C23.9194 73 23.8794 72.9733 23.8661 72.92L21.1661 67.04L20.4661 68.14V72.9C20.4661 72.9667 20.4394 73 20.3861 73H18.1261ZM27.5011 73C27.4478 73 27.4211 72.9667 27.4211 72.9L27.4411 59.16C27.4411 59.1067 27.4678 59.08 27.5211 59.08H33.9411C33.9944 59.08 34.0211 59.1133 34.0211 59.18V61.42C34.0211 61.4733 33.9944 61.5 33.9411 61.5H29.8411V64.62H33.9411C33.9944 64.62 34.0211 64.6467 34.0211 64.7L34.0411 66.96C34.0411 67.0133 34.0144 67.04 33.9611 67.04H29.8411V70.54H33.9611C34.0144 70.54 34.0411 70.5733 34.0411 70.64V72.92C34.0411 72.9733 34.0144 73 33.9611 73H27.5011ZM38.8683 73C38.8149 73 38.7883 72.9667 38.7883 72.9L38.8283 59.16C38.8283 59.1067 38.8549 59.08 38.9083 59.08H41.3483C41.4016 59.08 41.4483 59.1067 41.4883 59.16L43.3083 61.8L45.1283 59.16C45.1683 59.1067 45.2149 59.08 45.2683 59.08H47.7283C47.7816 59.08 47.8083 59.1067 47.8083 59.16L47.8483 72.9C47.8483 72.9667 47.8216 73 47.7683 73H45.5083C45.4549 73 45.4283 72.9667 45.4283 72.9L45.4083 62.7L43.3083 65.74L41.2283 62.7L41.2083 72.9C41.2083 72.9667 41.1816 73 41.1283 73H38.8683ZM48.8505 72.9L51.3305 59.16C51.3438 59.1067 51.3771 59.08 51.4305 59.08H54.3305C54.3838 59.08 54.4171 59.1067 54.4305 59.16L56.8105 72.9C56.8238 72.9667 56.7971 73 56.7305 73H54.5105C54.4571 73 54.4238 72.9667 54.4105 72.9L54.1905 71.44H51.4705L51.2505 72.9C51.2371 72.9667 51.2038 73 51.1505 73H48.9305C48.8771 73 48.8505 72.9667 48.8505 72.9ZM51.8705 69.3H53.7905L52.9705 63.68L52.8505 62.94L52.7705 63.68L51.8705 69.3ZM58.2456 73C58.139 73 58.0856 72.9533 58.0856 72.86L58.0656 59.24C58.0656 59.1333 58.119 59.08 58.2256 59.08H60.0256L63.4056 66.96L63.3056 59.24C63.3056 59.1333 63.3656 59.08 63.4856 59.08H65.4656C65.5456 59.08 65.5856 59.1333 65.5856 59.24L65.6056 72.88C65.6056 72.96 65.5723 73 65.5056 73H63.7456L60.2856 65.64L60.4256 72.84C60.4256 72.9467 60.3656 73 60.2456 73H58.2456ZM67.443 73C67.3763 73 67.343 72.9667 67.343 72.9L67.363 59.16C67.363 59.1067 67.3896 59.08 67.443 59.08H69.683C69.7363 59.08 69.763 59.1067 69.763 59.16L69.783 72.9C69.783 72.9667 69.7563 73 69.703 73H67.443ZM70.8622 72.9L73.3422 59.16C73.3555 59.1067 73.3889 59.08 73.4422 59.08H76.3422C76.3955 59.08 76.4289 59.1067 76.4422 59.16L78.8222 72.9C78.8355 72.9667 78.8089 73 78.7422 73H76.5222C76.4689 73 76.4355 72.9667 76.4222 72.9L76.2022 71.44H73.4822L73.2622 72.9C73.2489 72.9667 73.2155 73 73.1622 73H70.9422C70.8889 73 70.8622 72.9667 70.8622 72.9ZM73.8822 69.3H75.8022L74.9822 63.68L74.8622 62.94L74.7822 63.68L73.8822 69.3Z" fill="#2F3035"/>
<path d="M39.8168 1.40784C39.175 2.11174 37.7465 6.04534 37.7258 7.1426C37.7258 8.30198 38.3055 9.39924 39.0508 9.62698C39.4441 9.75119 39.4648 9.95823 39.4648 14.2024V18.6328H35.4277H31.3906V15.5274V12.4012L32.1152 11.7801C33.2746 10.7449 33.3988 9.89612 32.6535 7.72229C31.432 4.07854 30.9766 3.37463 30.0656 3.60237C29.693 3.68518 29.4238 4.03713 29.1133 4.72034C28.368 6.37659 27.457 9.1094 27.457 9.66838C27.457 10.4758 28.0988 11.6145 28.7406 11.9871L29.3203 12.3184L29.2789 15.4239L29.2168 18.5293L27.3328 18.6328C25.7387 18.7156 25.3246 18.8192 24.6 19.2953C22.509 20.6824 21.8465 23.9328 23.2336 25.9824C23.7098 26.7071 23.7305 26.8727 23.6891 29.3364L23.627 31.9449L22.509 32.2141C21.0391 32.6074 19.9418 33.4977 19.2379 34.9469C18.741 35.9406 18.6582 36.3754 18.6582 37.7832C18.6582 39.1289 18.741 39.5637 19.1344 40.1641C19.5691 40.8473 19.5898 41.1164 19.5898 44.636C19.5898 48.1969 19.6105 48.4039 20.1074 49.3977C20.6871 50.5364 21.4531 51.2196 22.7367 51.675C23.9996 52.1098 57.0004 52.1098 58.2633 51.675C59.5469 51.2196 60.3129 50.5364 60.8926 49.3977C61.3895 48.4246 61.4102 48.1762 61.4102 44.843C61.4102 41.6133 61.4516 41.2614 61.8863 40.3918C62.2383 39.6672 62.3418 39.1082 62.3211 37.9903C62.2797 35.0711 60.8305 32.918 58.4703 32.2555L57.3731 31.9449L57.3109 29.3778C57.2488 26.852 57.2695 26.7899 57.9113 25.527C58.491 24.3676 58.5531 24.0985 58.4496 23.0633C58.284 21.4899 57.5594 20.1235 56.4621 19.3574C55.6754 18.8192 55.3648 18.7364 53.6879 18.6328L51.7832 18.5293L51.7211 15.486L51.659 12.4426L52.4457 11.718C53.191 11.0348 53.2324 10.952 53.2324 9.68909C53.2324 8.67463 53.0668 7.95002 52.425 6.31448C51.9902 5.1758 51.4727 4.07854 51.307 3.87151C50.8723 3.37463 50.0856 3.43674 49.7129 3.99573C49.1125 4.90666 47.7461 8.88166 47.7461 9.68909C47.7461 10.6 48.4293 11.7801 49.1539 12.1114C49.5887 12.2977 49.6094 12.4012 49.6094 15.4653V18.6328H45.5723H41.5352V14.368V10.1031L42.3426 9.31643C43.6883 8.01213 43.6676 7.01838 42.2184 3.51955C41.2039 1.03518 40.6035 0.517601 39.8168 1.40784ZM41.0176 6.25237C41.3488 7.39104 41.2039 7.86721 40.5 7.86721C39.7961 7.86721 39.6512 7.39104 39.9824 6.25237C40.1688 5.65198 40.3965 5.1758 40.5 5.1758C40.6035 5.1758 40.8313 5.65198 41.0176 6.25237ZM30.7902 8.71604C31.0801 9.8133 30.9559 10.3516 30.3969 10.3516C29.6102 10.3516 29.4652 9.85471 29.8586 8.59182C30.0656 7.97073 30.2934 7.51526 30.3762 7.59807C30.459 7.70159 30.6453 8.19846 30.7902 8.71604ZM51.2035 9.62698C51.1621 10.1446 51.0586 10.2688 50.5824 10.3102C49.7957 10.4137 49.6715 9.93752 50.127 8.50901L50.4996 7.34963L50.893 8.17776C51.1 8.63323 51.2449 9.27502 51.2035 9.62698ZM55.3856 21.2414C56.0895 21.8418 56.5656 23.084 56.3586 23.8707C56.0481 25.1336 54.516 26.3137 53.1496 26.3344C52.218 26.3344 51.5555 26.0239 49.9406 24.761C49.2781 24.2434 48.5949 23.8086 48.4293 23.8086C48.243 23.8086 47.8289 24.1192 47.4563 24.5125C46.4625 25.5891 45.5102 26.086 44.3715 26.086C43.2742 26.086 42.9016 25.941 41.5559 24.9059C41.059 24.5332 40.5207 24.2227 40.3758 24.2227C40.2102 24.2227 39.734 24.5332 39.3199 24.9266C38.2227 25.8996 37.7672 26.086 36.6285 26.086C35.4898 26.086 34.5375 25.5891 33.5438 24.5125C33.1711 24.1192 32.757 23.8086 32.5707 23.8086C32.4051 23.8086 31.7219 24.2434 31.0594 24.761C30.3762 25.2785 29.5688 25.8582 29.2375 26.0239C27.4156 26.9762 24.5586 25.4442 24.5586 23.5188C24.5586 22.6285 25.2004 21.3242 25.7801 21.0137C26.2355 20.7653 28.6164 20.7239 40.5414 20.7031H54.7438L55.3856 21.2414ZM35.4898 28.1563C36.8148 28.4461 38.3262 28.177 39.6098 27.411L40.5 26.8934L41.3902 27.411C43.4191 28.6117 45.8 28.5496 47.7047 27.2453L48.6777 26.5621L49.7129 27.266C51.2242 28.2805 52.6734 28.6531 53.9777 28.384C54.5367 28.2598 55.0543 28.1563 55.0957 28.1563C55.1578 28.1563 55.1992 29.0465 55.1992 30.1231V32.0899H40.5H25.8008V30.1024C25.8008 28.3219 25.8422 28.1356 26.1734 28.2391C27.9332 28.7567 29.548 28.4461 31.2871 27.266L32.3223 26.5621L33.3574 27.2453C33.9164 27.618 34.8895 28.0321 35.4898 28.1563ZM58.5117 34.5328C60.0231 35.2781 60.8098 38.3629 59.8367 39.6672C59.0707 40.7024 58.0148 41.4063 56.8141 41.6547C55.6961 41.8824 55.6133 41.8824 54.309 41.2406C53.5637 40.868 52.5078 40.1641 51.9488 39.6879C50.4789 38.3629 50.3754 38.3629 49.1332 39.5223C47.6633 40.8887 46.8559 41.2614 45.3652 41.2821C43.9988 41.2821 43.2328 40.9715 41.825 39.8328C40.8105 38.984 40.1273 38.9426 39.4441 39.6672C39.175 39.9571 38.5332 40.4539 38.0156 40.7438C36.1109 41.8824 33.2953 41.2199 31.7633 39.2946C31.4113 38.8391 30.9766 38.5078 30.7281 38.5078C30.5004 38.5078 29.7551 38.984 29.0512 39.5637C26.5047 41.6754 24.9313 42.0688 22.923 41.075C21.6809 40.4539 20.625 39.0461 20.625 38.0317C20.625 37.1414 21.0184 35.775 21.4117 35.2989C22.4055 34.0774 21.184 34.1602 40.293 34.1602C56.5242 34.1602 57.8492 34.1809 58.5117 34.5328ZM31.3492 42.0274C33.8129 43.9735 36.9391 44.1391 39.5063 42.4414L40.4793 41.7996L41.3488 42.4414C43.7504 44.1805 47.1871 43.9942 49.6715 42.0067L50.4375 41.3856L51.9902 42.4C52.8184 42.9797 53.8535 43.5594 54.2883 43.6836C55.282 44.0149 57.7871 43.8492 58.6773 43.3938L59.3398 43.0418V45.609C59.3398 48.4867 59.1328 49.0457 57.7664 49.6047C56.752 50.0395 24.248 50.0395 23.2543 49.6047C21.9086 49.0457 21.7637 48.6938 21.7016 45.7125L21.6188 43.0418L22.3227 43.3938C22.6953 43.6008 23.6684 43.7871 24.5172 43.8492C26.3184 43.9735 27.2293 43.6629 29.134 42.3379C29.8586 41.8203 30.4797 41.4063 30.5211 41.4063C30.5625 41.4063 30.9352 41.6754 31.3492 42.0274Z" fill="black"/>
</svg>
